<svg width="24" height="24" viewBox="0 0 24 24" fill="none" xmlns="http://www.w3.org/2000/svg">
<path d="M12.7265 8.34752C12.4914 8.30083 12.2486 8.27586 12 8.27586C9.9465 8.27586 8.27588 9.94648 8.27588 12C8.27588 14.0535 9.9465 15.7241 12 15.7241C14.0535 15.7241 15.7242 14.0535 15.7242 12C15.7242 11.7514 15.6992 11.5086 15.6525 11.2735L13.463 13.463C13.0722 13.8538 12.5526 14.069 12 14.069C11.4474 14.069 10.9278 13.8538 10.537 13.463C10.1462 13.0722 9.93105 12.5526 9.93105 12C9.93105 11.4474 10.1462 10.9278 10.537 10.537L12.7265 8.34752Z" fill="#235897"/>
<path d="M22.9261 7.04004L21.4133 8.55286C21.2618 8.70428 21.0912 8.8299 20.907 8.92731C21.2402 9.89099 21.4219 10.9246 21.4219 12C21.4219 17.1953 17.1953 21.4219 12 21.4219C6.80475 21.4219 2.57812 17.1953 2.57812 12C2.57812 6.80475 6.80475 2.57812 12 2.57812C13.0757 2.57812 14.1099 2.75995 15.0738 3.09338C15.1714 2.909 15.2961 2.73761 15.4473 2.58655L16.96 1.07391C15.4473 0.384521 13.7679 0 12 0C5.38312 0 0 5.38312 0 12C0 18.6169 5.38312 24 12 24C18.6169 24 24 18.6169 24 12C24 10.2321 23.6155 8.55267 22.9261 7.04004Z" fill="#235897"/>
<path d="M14.9292 6.14476L14.8035 4.65482C13.9323 4.32095 12.9873 4.13794 12 4.13794C7.66488 4.13794 4.13794 7.66488 4.13794 12C4.13794 16.3351 7.66488 19.8621 12 19.8621C16.3351 19.8621 19.8621 16.3351 19.8621 12C19.8621 11.0128 19.6791 10.0677 19.3452 9.19649L17.8553 9.07077L16.7617 10.1642C16.9822 10.7342 17.1035 11.3531 17.1035 12C17.1035 14.8141 14.8141 17.1035 12 17.1035C9.18589 17.1035 6.89656 14.8141 6.89656 12C6.89656 9.18589 9.18589 6.89656 12 6.89656C12.6469 6.89656 13.2658 7.01779 13.8359 7.23833L14.9292 6.14476Z" fill="#235897"/>
<path d="M16.5686 3.7766L16.775 6.22258L11.794 11.2035C11.5171 11.4803 11.5171 11.9293 11.794 12.2061C11.9323 12.3446 12.1138 12.4138 12.2953 12.4138C12.4768 12.4138 12.6583 12.3446 12.7966 12.2061L17.7776 7.22512L20.2236 7.43136C20.2435 7.43302 20.2633 7.43394 20.2832 7.43394C20.4704 7.43394 20.651 7.35972 20.7845 7.22623L23.7923 4.21823C23.9875 4.02326 24.0517 3.73265 23.957 3.47343C23.8621 3.21421 23.6256 3.03364 23.3507 3.01056L21.1731 2.82686L20.9896 0.649511C20.9663 0.374412 20.7858 0.1379 20.5267 0.0431848C20.2675 -0.0517153 19.9769 0.0127207 19.7817 0.20769L16.7739 3.21569C16.6262 3.36339 16.5511 3.56852 16.5686 3.7766Z" fill="#235897"/>
</svg>
