<svg width="27" height="23" viewBox="0 0 27 23" fill="none" xmlns="http://www.w3.org/2000/svg">
<path d="M10.6608 8.08747V6.56451C10.6608 5.11664 11.8387 3.9387 13.2866 3.9387H20.7701V1.05032C20.7701 0.470229 20.2999 0 19.7198 0H7.16848C6.58839 0 6.11816 0.470229 6.11816 1.05032V8.08747H10.6608Z" fill="#235897"/>
<path d="M13.2866 17.5404C11.8387 17.5404 10.6608 16.3625 10.6608 14.9146V9.66298H1.05032C0.470229 9.66298 0 10.1332 0 10.7133V19.0634C0 19.6434 0.470229 20.1137 1.05032 20.1137H3.83367V22.4739C3.83367 22.785 4.08895 23 4.36098 23C4.46785 23 4.57725 22.9669 4.67487 22.8933L8.36376 20.1136H13.6017C14.1817 20.1136 14.652 19.6434 14.652 19.0633V17.5403H13.2866V17.5404Z" fill="#235897"/>
<path d="M25.838 5.51421H13.2866C12.7066 5.51421 12.2363 5.98443 12.2363 6.56453V14.9146C12.2363 15.4947 12.7066 15.9649 13.2866 15.9649H18.5245L22.2134 18.7446C22.3111 18.8181 22.4204 18.8513 22.5273 18.8513C22.7994 18.8513 23.0546 18.6363 23.0546 18.3252V15.965H25.838C26.4181 15.965 26.8883 15.4947 26.8883 14.9146V6.56458C26.8883 5.98443 26.4181 5.51421 25.838 5.51421Z" fill="#235897"/>
</svg>
