<svg width="20" height="25" viewBox="0 0 20 25" fill="none" xmlns="http://www.w3.org/2000/svg">
<path d="M13.887 1.89451H12.0024C11.7672 1.88745 11.5652 1.73051 11.5064 1.50945C11.3278 0.608906 10.5 -0.0311961 9.55572 0.00117447C8.60574 -0.0149801 7.78195 0.635502 7.60501 1.54157C7.54387 1.75656 7.33864 1.90262 7.10904 1.89458H5.29053V5.10368H13.887V1.89451Z" fill="#235897"/>
<path d="M19.1772 23.5238V5.13564C19.1792 4.40899 18.5739 3.81834 17.8252 3.81637C17.7909 3.81631 17.7566 3.81748 17.7224 3.81987H14.8789V5.45652C14.8789 5.71327 14.7136 6.06628 14.449 6.06628H4.69535C4.43081 6.06628 4.29861 5.71327 4.29861 5.45652V3.81993H1.45513C0.708486 3.76674 0.0587331 4.31114 0.0039911 5.03589C0.00145967 5.06912 0.0002573 5.10241 0.000383871 5.1357V23.5238C-0.0180955 24.3212 0.632923 24.9821 1.45443 25C1.45469 25 1.45494 25 1.45519 25H17.7224C18.5439 24.9825 19.1953 24.3219 19.1772 23.5245C19.1772 23.5243 19.1772 23.524 19.1772 23.5238ZM6.91059 19.2878L4.33165 21.6304C4.24918 21.7262 4.12938 21.7843 4.00104 21.7909C3.86289 21.7856 3.73233 21.728 3.63734 21.6304L2.28176 20.2826C2.10159 20.0868 2.11634 19.787 2.3148 19.6087C2.50763 19.4252 2.81627 19.4252 3.0091 19.6087L4.00098 20.6356L6.24932 18.5818C6.47475 18.4308 6.78364 18.4857 6.9392 18.7045C7.06615 18.883 7.05438 19.1218 6.91059 19.2878ZM6.91059 14.1532L4.33165 16.4959C4.24918 16.5916 4.12938 16.6497 4.00104 16.6563C3.86289 16.651 3.73233 16.5934 3.63734 16.4959L2.28176 15.148C2.10159 14.9522 2.11634 14.6524 2.3148 14.4741C2.50763 14.2907 2.81627 14.2907 3.0091 14.4741L4.00098 15.501L6.24932 13.4472C6.47475 13.2962 6.78364 13.3511 6.9392 13.5699C7.06615 13.7484 7.05438 13.9872 6.91059 14.1532ZM6.91059 9.01863L4.33165 11.3613C4.24918 11.4571 4.12938 11.5152 4.00104 11.5217C3.86289 11.5164 3.73233 11.4588 3.63734 11.3613L2.28176 10.0135C2.10159 9.81764 2.11634 9.51783 2.3148 9.33957C2.50763 9.1561 2.81627 9.1561 3.0091 9.33957L4.00098 10.3665L6.24932 8.31262C6.47475 8.16164 6.78364 8.21655 6.9392 8.43535C7.06615 8.61385 7.05438 8.85266 6.91059 9.01863ZM16.5321 21.1491H8.92744C8.65354 21.1491 8.43147 20.9335 8.43147 20.6677C8.43147 20.4018 8.65354 20.1863 8.92744 20.1863H16.532C16.8059 20.1863 17.028 20.4018 17.028 20.6677C17.028 20.9335 16.806 21.1491 16.5321 21.1491ZM16.5321 16.0145H8.92744C8.65354 16.0145 8.43147 15.7989 8.43147 15.5331C8.43147 15.2673 8.65354 15.0517 8.92744 15.0517H16.532C16.8059 15.0517 17.028 15.2673 17.028 15.5331C17.028 15.7989 16.806 16.0145 16.5321 16.0145ZM16.5321 10.8799H8.92744C8.65354 10.8799 8.43147 10.6644 8.43147 10.3985C8.43147 10.1327 8.65354 9.91715 8.92744 9.91715H16.532C16.8059 9.91715 17.028 10.1327 17.028 10.3985C17.028 10.6644 16.806 10.8799 16.5321 10.8799Z" fill="#235897"/>
</svg>
