<svg width="24" height="21" viewBox="0 0 24 21" fill="none" xmlns="http://www.w3.org/2000/svg">
<path d="M21.4822 5.14809H11.9576L10.063 2.95316C9.99927 2.87848 9.90376 2.8366 9.80418 2.83963H2.11975C0.946512 2.84796 0 3.77739 0 4.92103V18.4211C0.00142352 19.5686 0.955441 20.4986 2.13269 20.4999H21.4822C22.6595 20.4986 23.6135 19.5686 23.6149 18.4211V7.22696C23.6135 6.07942 22.6595 5.14947 21.4822 5.14809Z" fill="#235897"/>
<path d="M21.8802 2.80867H12.353L10.4584 0.613745C10.3946 0.539067 10.2991 0.497187 10.1996 0.500215H2.51772C1.45319 0.501918 0.553007 1.2685 0.408325 2.29652H7.41464C7.78203 2.29564 8.13086 2.4537 8.3671 2.72794L9.98474 4.60245H19.0823C20.765 4.60523 22.1284 5.93423 22.1313 7.57443V18.1403C23.1981 18.0106 23.9991 17.1271 24 16.0791V4.88502C23.9972 3.74334 23.0514 2.81699 21.8802 2.80867Z" fill="#235897"/>
</svg>
