<svg width="29" height="29" viewBox="0 0 29 29" fill="none" xmlns="http://www.w3.org/2000/svg">
<path d="M15.3778 10.0866C15.0938 10.0302 14.8003 10 14.5 10C12.0187 10 10 12.0187 10 14.5C10 16.9813 12.0187 19 14.5 19C16.9813 19 19 16.9813 19 14.5C19 14.1997 18.9698 13.9062 18.9134 13.6222L16.2678 16.2678C15.7956 16.74 15.1678 17 14.5 17C13.8322 17 13.2044 16.74 12.7322 16.2678C12.26 15.7956 12 15.1678 12 14.5C12 13.8322 12.26 13.2044 12.7322 12.7322L15.3778 10.0866Z" fill="#235897"/>
<path d="M27.7024 8.50671L25.8744 10.3347C25.6914 10.5177 25.4852 10.6695 25.2626 10.7872C25.6653 11.9516 25.8848 13.2006 25.8848 14.5C25.8848 20.7776 20.7776 25.8848 14.5 25.8848C8.2224 25.8848 3.11523 20.7776 3.11523 14.5C3.11523 8.2224 8.2224 3.11523 14.5 3.11523C15.7999 3.11523 17.0495 3.33494 18.2142 3.73784C18.3321 3.51504 18.4828 3.30795 18.6655 3.12541L20.4933 1.29765C18.6655 0.46463 16.6362 0 14.5 0C6.5046 0 0 6.5046 0 14.5C0 22.4954 6.5046 29 14.5 29C22.4954 29 29 22.4954 29 14.5C29 12.3638 28.5354 10.3345 27.7024 8.50671Z" fill="#235897"/>
<path d="M18.0395 7.42491L17.8876 5.62457C16.8349 5.22114 15.6929 5 14.5 5C9.26172 5 5 9.26172 5 14.5C5 19.7383 9.26172 24 14.5 24C19.7383 24 24 19.7383 24 14.5C24 13.3071 23.7789 12.1651 23.3754 11.1124L21.5751 10.9605L20.2537 12.2817C20.5202 12.9705 20.6667 13.7183 20.6667 14.5C20.6667 17.9004 17.9004 20.6667 14.5 20.6667C11.0996 20.6667 8.33333 17.9004 8.33333 14.5C8.33333 11.0996 11.0996 8.33333 14.5 8.33333C15.2817 8.33333 16.0295 8.47982 16.7183 8.74631L18.0395 7.42491Z" fill="#235897"/>
<path d="M20.0203 4.56339L20.2697 7.51895L14.251 13.5376C13.9163 13.872 13.9163 14.4146 14.251 14.749C14.4181 14.9163 14.6374 15 14.8567 15C15.076 15 15.2953 14.9163 15.4624 14.749L21.4811 8.73036L24.4367 8.97956C24.4608 8.98156 24.4847 8.98268 24.5087 8.98268C24.735 8.98268 24.9532 8.89299 25.1145 8.7317L28.7489 5.09703C28.9847 4.86144 29.0624 4.51029 28.9479 4.19707C28.8333 3.88384 28.5475 3.66565 28.2153 3.63777L25.5841 3.41579L25.3623 0.784826C25.3342 0.452414 25.116 0.166629 24.803 0.0521816C24.4898 -0.0624893 24.1386 0.0153709 23.9028 0.250959L20.2683 3.88562C20.0899 4.0641 19.9991 4.31196 20.0203 4.56339Z" fill="#235897"/>
</svg>
