<svg width="40" height="35" viewBox="0 0 40 35" fill="none" xmlns="http://www.w3.org/2000/svg">
<path d="M15.8594 12.0313V9.76563C15.8594 7.61172 17.6117 5.85938 19.7656 5.85938H30.8984V1.5625C30.8984 0.699531 30.1989 0 29.3359 0H10.6641C9.80109 0 9.10156 0.699531 9.10156 1.5625V12.0313H15.8594Z" fill="#235897"/>
<path d="M19.7656 26.0938C17.6117 26.0938 15.8594 24.3414 15.8594 22.1875V14.375H1.5625C0.699531 14.375 0 15.0746 0 15.9375V28.3594C0 29.2224 0.699531 29.9219 1.5625 29.9219H5.70312V33.4331C5.70312 33.8959 6.08289 34.2157 6.48758 34.2157C6.64656 34.2157 6.8093 34.1664 6.95453 34.057L12.4423 29.9218H20.2344C21.0973 29.9218 21.7969 29.2223 21.7969 28.3593V26.0937H19.7656V26.0938Z" fill="#235897"/>
<path d="M38.4375 8.20316H19.7656C18.9027 8.20316 18.2031 8.90269 18.2031 9.76566V22.1875C18.2031 23.0505 18.9027 23.75 19.7656 23.75H27.5577L33.0455 27.8852C33.1907 27.9946 33.3534 28.0439 33.5124 28.0439C33.9171 28.0439 34.2969 27.7241 34.2969 27.2613V23.7501H38.4375C39.3005 23.7501 40 23.0506 40 22.1876V9.76573C40 8.90269 39.3005 8.20316 38.4375 8.20316Z" fill="#235897"/>
</svg>
