<svg width="26" height="33" viewBox="0 0 26 33" fill="none" xmlns="http://www.w3.org/2000/svg">
<path d="M18.3308 2.50075H15.843C15.5326 2.49143 15.2659 2.28427 15.1884 1.99246C14.9526 0.803753 13.8599 -0.0411787 12.6134 0.00155029C11.3595 -0.0197737 10.2721 0.83886 10.0385 2.03487C9.9578 2.31865 9.6869 2.51145 9.38382 2.50083H6.9834V6.73684H18.3308V2.50075Z" fill="#235897"/>
<path d="M25.3138 31.0513V6.77902C25.3165 5.81984 24.5174 5.04018 23.5292 5.03759C23.4839 5.03751 23.4386 5.03905 23.3934 5.04221H19.6401V7.20258C19.6401 7.54149 19.4219 8.00745 19.0727 8.00745H6.19784C5.84866 8.00745 5.67415 7.54149 5.67415 7.20258V5.04229H1.92076C0.935198 4.97207 0.0775274 5.69068 0.00526823 6.64734C0.00192676 6.69121 0.000339634 6.73515 0.000506708 6.7791V31.0514C-0.023886 32.1039 0.835455 32.9763 1.91984 32.9999C1.92018 32.9999 1.92051 32.9999 1.92085 32.9999H23.3935C24.4779 32.9768 25.3377 32.1047 25.3139 31.0522C25.3138 31.0519 25.3138 31.0516 25.3138 31.0513ZM9.12195 25.4598L5.71775 28.5521C5.60891 28.6785 5.45077 28.7552 5.28136 28.7639C5.099 28.7569 4.92666 28.6808 4.80127 28.5521L3.01192 26.7729C2.77409 26.5145 2.79355 26.1187 3.05553 25.8834C3.31006 25.6412 3.71747 25.6412 3.97201 25.8834L5.28127 27.2389L8.24908 24.5278C8.54664 24.3286 8.95438 24.401 9.15971 24.6898C9.32729 24.9255 9.31175 25.2407 9.12195 25.4598ZM9.12195 18.6822L5.71775 21.7745C5.60891 21.9009 5.45077 21.9776 5.28136 21.9862C5.099 21.9793 4.92666 21.9032 4.80127 21.7745L3.01192 19.9953C2.77409 19.7368 2.79355 19.3411 3.05553 19.1058C3.31006 18.8636 3.71747 18.8636 3.97201 19.1058L5.28127 20.4613L8.24908 17.7502C8.54664 17.5509 8.95438 17.6234 9.15971 17.9122C9.32729 18.1478 9.31175 18.4631 9.12195 18.6822ZM9.12195 11.9045L5.71775 14.9968C5.60891 15.1233 5.45077 15.2 5.28136 15.2086C5.099 15.2017 4.92666 15.1256 4.80127 14.9968L3.01192 13.2177C2.77409 12.9592 2.79355 12.5635 3.05553 12.3282C3.31006 12.086 3.71747 12.086 3.97201 12.3282L5.28127 13.6837L8.24908 10.9726C8.54664 10.7733 8.95438 10.8458 9.15971 11.1346C9.32729 11.3702 9.31175 11.6855 9.12195 11.9045ZM21.8223 27.9167H11.7842C11.4226 27.9167 11.1295 27.6321 11.1295 27.2812C11.1295 26.9303 11.4226 26.6458 11.7842 26.6458H21.8222C22.1837 26.6458 22.4769 26.9303 22.4769 27.2812C22.4769 27.6321 22.1838 27.9167 21.8223 27.9167ZM21.8223 21.139H11.7842C11.4226 21.139 11.1295 20.8545 11.1295 20.5036C11.1295 20.1527 11.4226 19.8682 11.7842 19.8682H21.8222C22.1837 19.8682 22.4769 20.1527 22.4769 20.5036C22.4769 20.8545 22.1838 21.139 21.8223 21.139ZM21.8223 14.3614H11.7842C11.4226 14.3614 11.1295 14.0769 11.1295 13.726C11.1295 13.3751 11.4226 13.0906 11.7842 13.0906H21.8222C22.1837 13.0906 22.4769 13.3751 22.4769 13.726C22.4769 14.077 22.1838 14.3614 21.8223 14.3614Z" fill="#235897"/>
</svg>
